<?xml version="1.0" encoding="utf-8"?>
<!-- Generator: Adobe Illustrator 27.6.1, SVG Export Plug-In . SVG Version: 6.00 Build 0)  -->
<svg version="1.1" id="Calque_1" xmlns="http://www.w3.org/2000/svg" xmlns:xlink="http://www.w3.org/1999/xlink" x="0px" y="0px"
	 viewBox="0 0 535.5 150" style="enable-background:new 0 0 535.5 150;" xml:space="preserve">
<style type="text/css">
	.st0{fill:#1D4ED8;}
	.st1{fill:#FFFFFF;}
	.st2{fill:#FFFFFF;stroke:#FFFFFF;stroke-width:1.1781;stroke-miterlimit:10;}
	.st3{fill:#FFFFFF;stroke:#FFFFFF;stroke-width:1.6459;stroke-miterlimit:10;}
</style>
<g id="Logo">
	<circle class="st0" cx="75.8" cy="75" r="71.4"/>
	<path class="st1" d="M183.4,59.3L183.4,59.3c1.4,0,2.6,0.9,3.1,2.2l2.4,6.9c0.4,1.2,2.2,1.2,2.6,0l2.4-7c0.5-1.3,1.7-2.2,3.1-2.2h0
		c2.3,0,3.8,2.3,3,4.4l-4.4,11.7c-0.4,1-0.4,2.2,0,3.2v0c1.5,3.8,6.9,3.7,8.3-0.1l6.1-16.8c0.5-1.5,2-2.5,3.6-2.5h0
		c2.7,0,4.5,2.7,3.5,5.2L204.7,95c-0.7,1.8-2.5,3.1-4.5,3.1l0,0c-2,0-3.7-1.2-4.5-3l-4.3-10.3c-0.5-1.1-2.1-1.1-2.5,0l-4.3,10.3
		c-0.8,1.8-2.5,3-4.5,3h0c-2,0-3.8-1.2-4.5-3.1l-12.3-30.8c-1-2.5,0.8-5.1,3.5-5.1h0c1.6,0,3,1,3.5,2.5l6.1,16.8
		c1.4,3.8,6.8,3.9,8.3,0.1l0,0c0.4-1,0.4-2.1,0-3.2l-4.4-11.7C179.5,61.5,181.1,59.3,183.4,59.3z"/>
	<path class="st1" d="M231.9,98.6c-2.3,0-4.4-0.4-6.3-1.2c-1.9-0.8-3.5-1.8-4.8-3.2c-1.3-1.4-2.3-2.9-3-4.6c-0.7-1.7-1-3.6-1-5.6
		c0-2.7,0.6-5.1,1.8-7.4c1.2-2.3,3-4.1,5.2-5.4c2.2-1.4,4.9-2,8.1-2c3.1,0,5.8,0.7,8,2c2.2,1.4,3.9,3.1,5.2,5.4
		c1.2,2.2,1.8,4.6,1.8,7.2c0,0.5,0,0.9-0.1,1.3c0,0.4-0.1,0.8-0.1,1.1h-22.2c0.1,1.5,0.5,2.8,1.2,3.8c0.7,1.1,1.6,1.9,2.7,2.4
		c1.1,0.6,2.3,0.9,3.5,0.9c1.5,0,2.9-0.4,4.2-1.1c0.7-0.4,1.3-0.8,1.8-1.4c0.7-0.9,1.9-1.2,3-0.9l0.1,0c2.2,0.6,2.9,3.5,1.2,5
		c0,0,0,0,0,0c-1.3,1.1-2.8,2-4.6,2.7C236,98.3,234,98.6,231.9,98.6z M224.4,81.6h15c-0.1-1.4-0.6-2.7-1.2-3.7
		c-0.7-1.1-1.6-1.9-2.7-2.5c-1.1-0.6-2.3-0.9-3.7-0.9c-1.3,0-2.5,0.3-3.6,0.9c-1.1,0.6-2,1.4-2.6,2.5
		C224.9,78.9,224.5,80.2,224.4,81.6z"/>
	<path class="st1" d="M249.4,89.7c0-1.8,0.5-3.5,1.6-4.8c1-1.4,2.5-2.4,4.3-3.2c1.8-0.8,4-1.2,6.4-1.2c1.2,0,2.4,0.1,3.7,0.3
		c1.2,0.2,2.3,0.5,3.2,0.9v-1.6c0-1.8-0.5-3.1-1.6-4.1c-1.1-1-2.7-1.5-4.8-1.5c-1.6,0-3.1,0.3-4.6,0.8c-0.7,0.3-1.4,0.6-2.1,1
		c-1.3,0.7-3,0.2-3.6-1.2v0c-0.6-1.3-0.1-2.8,1.1-3.5c1.2-0.6,2.4-1.1,3.6-1.5c2-0.6,4.1-0.9,6.3-0.9c4.1,0,7.3,1,9.6,3
		c2.3,2,3.4,4.9,3.4,8.7v9c0,0.8,0.1,1.3,0.4,1.6c0.3,0.3,0.7,0.5,1.3,0.6v6c-0.7,0.1-1.3,0.2-1.8,0.3c-0.5,0.1-1,0.1-1.3,0.1
		c-1.5,0-2.6-0.3-3.3-1c-0.8-0.6-1.2-1.4-1.3-2.4l-0.2-1.5c-1.3,1.6-2.9,2.9-4.7,3.7c-1.9,0.9-3.8,1.3-5.7,1.3
		c-1.9,0-3.6-0.4-5.1-1.2c-1.5-0.8-2.7-1.9-3.6-3.2C249.9,92.9,249.4,91.4,249.4,89.7z M267.3,91.1c0.4-0.4,0.7-0.8,1-1.2
		c0.3-0.5,0.4-0.9,0.4-1.2v-2.8c-0.9-0.4-1.8-0.6-2.9-0.8c-1-0.2-2-0.3-2.9-0.3c-1.9,0-3.5,0.4-4.7,1.2c-1.2,0.8-1.8,1.9-1.8,3.2
		c0,0.7,0.2,1.4,0.6,2.1c0.4,0.7,1,1.2,1.7,1.6c0.7,0.4,1.7,0.6,2.8,0.6s2.2-0.2,3.2-0.6C265.8,92.3,266.7,91.7,267.3,91.1z"/>
	<path class="st1" d="M299.9,96.7c-0.7,0.3-1.4,0.6-2.3,0.9c-0.9,0.3-1.8,0.6-2.8,0.8c-1,0.2-2,0.3-3,0.3c-1.4,0-2.7-0.2-3.8-0.7
		c-1.1-0.5-2-1.2-2.7-2.3c-0.7-1-1-2.4-1-4V75.2h-0.9c-1.5,0-2.8-1.3-2.8-2.8l0,0c0-1.5,1.3-2.8,2.8-2.8h0.9V64c0-2,1.7-3.7,3.7-3.7
		h0c2,0,3.7,1.7,3.7,3.7v5.6h3.2c1.5,0,2.8,1.3,2.8,2.8l0,0c0,1.5-1.3,2.8-2.8,2.8h-3.2v13.9c0,1,0.3,1.7,0.8,2.1
		c0.5,0.5,1.2,0.7,2,0.7c0.7,0,1.5-0.1,2.2-0.4c0.7-0.3,1.3-0.5,1.8-0.7L299.9,96.7z"/>
	<path class="st1" d="M326.7,98.1L326.7,98.1c-2,0-3.7-1.6-3.7-3.7V82.2c0-2.2-0.4-3.8-1.3-4.9c-0.9-1.1-2-1.6-3.5-1.6
		c-0.9,0-1.8,0.3-2.8,0.8c-1,0.5-1.9,1.2-2.7,2.1c-0.8,0.9-1.4,1.9-1.8,3v13c0,2-1.6,3.6-3.6,3.6l0,0c-2,0-3.6-1.6-3.6-3.6V61.7
		c0-2,1.6-3.6,3.6-3.6l0,0c2,0,3.6,1.6,3.6,3.6v13.2c1.1-1.8,2.6-3.2,4.4-4.2c1.8-1,3.8-1.5,6-1.5c1.9,0,3.4,0.3,4.6,0.9
		c1.2,0.6,2.1,1.5,2.7,2.5c0.6,1.1,1.1,2.3,1.3,3.6c0.3,1.3,0.4,2.7,0.4,4v14.1C330.4,96.5,328.8,98.1,326.7,98.1z"/>
	<path class="st1" d="M350.2,98.6c-2.3,0-4.4-0.4-6.3-1.2c-1.9-0.8-3.5-1.8-4.8-3.2c-1.3-1.4-2.3-2.9-3-4.6c-0.7-1.7-1-3.6-1-5.6
		c0-2.7,0.6-5.1,1.8-7.4c1.2-2.3,3-4.1,5.2-5.4c2.2-1.4,4.9-2,8.1-2c3.1,0,5.8,0.7,8,2c2.2,1.4,3.9,3.1,5.2,5.4
		c1.2,2.2,1.8,4.6,1.8,7.2c0,0.5,0,0.9-0.1,1.3c0,0.4-0.1,0.8-0.1,1.1h-22.2c0.1,1.5,0.5,2.8,1.2,3.8c0.7,1.1,1.6,1.9,2.7,2.4
		c1.1,0.6,2.3,0.9,3.5,0.9c1.5,0,2.9-0.4,4.2-1.1c0.7-0.4,1.3-0.8,1.8-1.4c0.7-0.9,1.9-1.2,3-0.9l0.1,0c2.2,0.6,2.9,3.5,1.2,5
		c0,0,0,0,0,0c-1.3,1.1-2.8,2-4.6,2.7C354.3,98.3,352.3,98.6,350.2,98.6z M342.7,81.6h15c-0.1-1.4-0.6-2.7-1.2-3.7
		c-0.7-1.1-1.6-1.9-2.7-2.5c-1.1-0.6-2.3-0.9-3.7-0.9c-1.3,0-2.5,0.3-3.6,0.9c-1.1,0.6-2,1.4-2.6,2.5
		C343.2,78.9,342.8,80.2,342.7,81.6z"/>
	<path class="st1" d="M386.9,75.7c-2.3,0-4.3,0.5-6,1.3c-1.8,0.8-3,2-3.8,3.6v13.8c0,2-1.6,3.6-3.6,3.6l0,0c-2,0-3.6-1.6-3.6-3.6V73
		c0-1.9,1.5-3.4,3.4-3.4l0,0c1.9,0,3.4,1.5,3.4,3.4v2.5c1-2,2.3-3.5,3.9-4.7c1.6-1.1,3.3-1.8,5-1.9c0.4,0,0.7,0,0.9,0
		c0.2,0,0.4,0,0.6,0.1V75.7z"/>
	<path class="st1" d="M419.7,59.3L419.7,59.3c1.4,0,2.7,0.9,3.1,2.2l2.4,6.9c0.4,1.2,2.2,1.2,2.6,0l2.4-7c0.5-1.3,1.7-2.2,3.1-2.2
		l0,0c2.3,0,3.8,2.3,3,4.4l-4.4,11.7c-0.4,1-0.4,2.2,0,3.2v0c1.5,3.8,6.9,3.7,8.3-0.1l6.1-16.8c0.5-1.5,2-2.5,3.6-2.5h0
		c2.7,0,4.5,2.7,3.5,5.2L441.1,95c-0.7,1.8-2.5,3.1-4.5,3.1h0c-2,0-3.7-1.2-4.5-3l-4.3-10.3c-0.5-1.1-2.1-1.1-2.5,0l-4.3,10.3
		c-0.8,1.8-2.5,3-4.5,3h0c-2,0-3.8-1.2-4.5-3.1l-12.3-30.8c-1-2.5,0.8-5.1,3.5-5.1l0,0c1.6,0,3,1,3.5,2.5l6.1,16.8
		c1.4,3.8,6.8,3.9,8.3,0.1v0c0.4-1,0.4-2.1,0-3.2l-4.4-11.7C415.9,61.5,417.4,59.3,419.7,59.3z"/>
	<path class="st1" d="M458.7,61.7L458.7,61.7c0-2,1.6-3.6,3.6-3.6l0,0c2,0,3.6,1.6,3.6,3.6v0c0,2-1.6,3.6-3.6,3.6h-0.1
		C460.3,65.3,458.7,63.7,458.7,61.7z M458.7,94.5V73c0-2,1.6-3.6,3.6-3.6l0,0c2,0,3.6,1.6,3.6,3.6v21.5c0,2-1.6,3.6-3.6,3.6l0,0
		C460.4,98.1,458.7,96.5,458.7,94.5z"/>
	<path class="st1" d="M483.3,98.6c-2.5,0-4.8-0.4-7-1.2c-1.4-0.5-2.6-1.1-3.8-1.9c-1.2-0.8-1.5-2.4-0.8-3.7v0c0.8-1.4,2.6-1.8,4-1
		c0.9,0.5,1.7,1,2.6,1.3c1.6,0.7,3.3,1,4.8,1c1.4,0,2.6-0.2,3.4-0.7c0.9-0.5,1.3-1.2,1.3-2.2c0-0.7-0.2-1.3-0.7-1.7
		c-0.5-0.4-1.2-0.7-2.1-1c-0.9-0.3-2-0.6-3.3-0.9c-2.1-0.6-3.9-1.3-5.3-2c-1.4-0.7-2.5-1.5-3.2-2.5c-0.7-1-1.1-2.3-1.1-3.8
		c0-1.9,0.5-3.5,1.5-4.8c1-1.4,2.3-2.4,4.1-3.2c1.7-0.8,3.8-1.1,6.1-1.1c2,0,4,0.3,5.8,1c1,0.3,1.9,0.8,2.7,1.3
		c1.3,0.8,1.7,2.6,0.9,4l0,0c-0.8,1.3-2.6,1.7-3.9,0.9c-0.6-0.4-1.2-0.7-1.8-0.9c-1.3-0.5-2.7-0.8-4-0.8c-0.8,0-1.5,0.1-2.2,0.3
		c-0.7,0.2-1.2,0.5-1.6,0.9c-0.4,0.4-0.6,1-0.6,1.8c0,0.6,0.2,1.2,0.6,1.6c0.4,0.4,1,0.7,1.8,1c0.8,0.3,1.7,0.6,2.9,1
		c2.3,0.6,4.2,1.3,5.8,2c1.6,0.7,2.8,1.5,3.6,2.5s1.2,2.4,1.2,4.1c0,2.8-1,5-3.1,6.6C489.6,97.9,486.8,98.6,483.3,98.6z"/>
	<path class="st1" d="M513.2,98.6c-2.3,0-4.4-0.4-6.3-1.2c-1.9-0.8-3.5-1.8-4.8-3.2c-1.3-1.4-2.3-2.9-3-4.6c-0.7-1.7-1-3.6-1-5.6
		c0-2.7,0.6-5.1,1.8-7.4c1.2-2.3,3-4.1,5.2-5.4c2.2-1.4,4.9-2,8.1-2c3.1,0,5.8,0.7,8,2c2.2,1.4,4,3.1,5.2,5.4
		c1.2,2.2,1.8,4.6,1.8,7.2c0,0.5,0,0.9-0.1,1.3c0,0.4-0.1,0.8-0.1,1.1h-22.2c0.1,1.5,0.5,2.8,1.2,3.8c0.7,1.1,1.6,1.9,2.7,2.4
		c1.1,0.6,2.3,0.9,3.5,0.9c1.5,0,2.9-0.4,4.2-1.1c0.7-0.4,1.3-0.8,1.7-1.4c0.8-0.9,1.9-1.2,3-0.9l0.1,0c2.2,0.6,2.9,3.5,1.2,5
		c0,0,0,0,0,0c-1.3,1.1-2.8,2-4.6,2.7C517.3,98.3,515.3,98.6,513.2,98.6z M505.6,81.6h15c-0.1-1.4-0.6-2.7-1.2-3.7
		c-0.7-1.1-1.6-1.9-2.7-2.5c-1.1-0.6-2.3-0.9-3.7-0.9c-1.3,0-2.5,0.3-3.6,0.9c-1.1,0.6-2,1.4-2.6,2.5
		C506.2,78.9,505.8,80.2,505.6,81.6z"/>
	<path class="st1" d="M83.9,106.4H67.6c-2,0-3.7,1.7-3.7,3.7c0,2,1.7,3.7,3.7,3.7h16.3c2,0,3.7-1.7,3.7-3.7
		C87.6,108.1,85.9,106.4,83.9,106.4z"/>
	<path class="st2" d="M121.8,60.2c-1.1-2.6-3.2-4.7-5.8-5.8c-1.2-0.5-2.5,0.1-3,1.2c-0.5,1.2,0.1,2.5,1.2,3c3.2,1.3,4.7,4.9,3.4,8.1
		c-1.3,3.2-4.9,4.7-8.1,3.4c-1.2-0.5-2.5,0.1-3,1.2c-0.5,1.2,0.1,2.5,1.2,3c1.3,0.5,2.7,0.8,4.1,0.8c1.4,0,2.8-0.3,4.1-0.8
		c2.6-1.1,4.7-3.2,5.8-5.8C122.9,65.7,122.9,62.8,121.8,60.2z"/>
	<path class="st2" d="M29.7,60.2c1.1-2.6,3.2-4.7,5.8-5.8c1.2-0.5,2.5,0.1,3,1.2s-0.1,2.5-1.2,3c-3.2,1.3-4.7,4.9-3.4,8.1
		c1.3,3.2,4.9,4.7,8.1,3.4c1.2-0.5,2.5,0.1,3,1.2c0.5,1.2-0.1,2.5-1.2,3C42.4,74.7,41,75,39.6,75c-1.4,0-2.8-0.3-4.1-0.8
		c-2.6-1.1-4.7-3.2-5.8-5.8C28.6,65.7,28.6,62.8,29.7,60.2z"/>
	<path class="st1" d="M78,119.2h-4.5c-2,0-3.7,1.7-3.7,3.7l0,0c0,2,1.7,3.7,3.7,3.7H78c2,0,3.7-1.7,3.7-3.7l0,0
		C81.7,120.8,80,119.2,78,119.2z"/>
	<path class="st3" d="M100.9,51.2c1.6,0,2.9-1.5,2.6-3.1C101,35,89.5,25,75.7,25c-13.8,0-25.3,10-27.7,23c-0.3,1.6,0.9,3.1,2.6,3.1
		h0c1.3,0,2.3-0.9,2.6-2.2c2-10.7,11.3-18.8,22.5-18.8c11.2,0,20.6,8.1,22.5,18.8C98.5,50.2,99.6,51.2,100.9,51.2L100.9,51.2z"/>
	<path id="W" class="st1" d="M68.9,59L68.9,59c1.4,0,2.6,0.9,3.1,2.2l2.4,6.9c0.4,1.2,2.2,1.2,2.6,0l2.4-7c0.5-1.3,1.7-2.2,3.1-2.2
		l0,0c2.3,0,3.8,2.3,3,4.4l-4.4,11.7c-0.4,1-0.4,2.2,0,3.2l0,0c1.5,3.8,6.9,3.7,8.3-0.1l6.1-16.8c0.5-1.5,2-2.5,3.6-2.5h0
		c2.7,0,4.5,2.7,3.5,5.2L90.3,94.8c-0.7,1.8-2.5,3.1-4.5,3.1h0c-2,0-3.7-1.2-4.5-3L77,84.5c-0.5-1.1-2.1-1.1-2.5,0l-4.3,10.3
		c-0.8,1.8-2.5,3-4.5,3h0c-2,0-3.8-1.2-4.5-3.1L48.9,64c-1-2.5,0.8-5.1,3.5-5.1h0c1.6,0,3,1,3.5,2.5L62,78.1
		c1.4,3.8,6.8,3.9,8.3,0.1v0c0.4-1,0.4-2.1,0-3.2l-4.4-11.7C65.1,61.3,66.7,59,68.9,59z"/>
</g>
</svg>
