<?xml version="1.0" encoding="utf-8"?>
<!-- Generator: Adobe Illustrator 27.6.1, SVG Export Plug-In . SVG Version: 6.00 Build 0)  -->
<svg version="1.1" xmlns="http://www.w3.org/2000/svg" xmlns:xlink="http://www.w3.org/1999/xlink" x="0px" y="0px"
	 viewBox="0 0 535.5 144.5" style="enable-background:new 0 0 535.5 144.5;" xml:space="preserve">
<style type="text/css">
	.st0{fill:#1D4ED8;}
	.st1{fill:#FFFFFF;}
	.st2{fill:#FFFFFF;stroke:#FFFFFF;stroke-width:1.1781;stroke-miterlimit:10;}
	.st3{fill:#FFFFFF;stroke:#FFFFFF;stroke-width:1.6459;stroke-miterlimit:10;}
</style>
<g id="Calque_1">
</g>
<g id="Calque_2">
	<g id="Logo_00000130611738699575444470000016620356922309302704_">
		<circle class="st1" cx="77.2" cy="72.2" r="71.4"/>
		<path class="st1" d="M184.9,56.5L184.9,56.5c1.4,0,2.6,0.9,3.1,2.2l2.4,6.9c0.4,1.2,2.2,1.2,2.6,0l2.4-7c0.5-1.3,1.7-2.2,3.1-2.2
			h0c2.3,0,3.8,2.3,3,4.4l-4.4,11.7c-0.4,1-0.4,2.2,0,3.2v0c1.5,3.8,6.9,3.7,8.3-0.1l6.1-16.8c0.5-1.5,2-2.5,3.6-2.5h0
			c2.7,0,4.5,2.7,3.5,5.2l-12.3,30.7c-0.7,1.8-2.5,3.1-4.5,3.1l0,0c-2,0-3.7-1.2-4.5-3L192.9,82c-0.5-1.1-2.1-1.1-2.5,0l-4.3,10.3
			c-0.8,1.8-2.5,3-4.5,3l0,0c-2,0-3.8-1.2-4.5-3.1l-12.3-30.8c-1-2.5,0.8-5.1,3.5-5.1l0,0c1.6,0,3,1,3.5,2.5l6.1,16.8
			c1.4,3.8,6.8,3.9,8.3,0.1l0,0c0.4-1,0.4-2.1,0-3.2l-4.4-11.7C181,58.8,182.6,56.5,184.9,56.5z"/>
		<path class="st1" d="M233.4,95.9c-2.3,0-4.4-0.4-6.3-1.2c-1.9-0.8-3.5-1.8-4.8-3.2c-1.3-1.4-2.3-2.9-3-4.6c-0.7-1.7-1-3.6-1-5.6
			c0-2.7,0.6-5.1,1.8-7.4c1.2-2.3,3-4.1,5.2-5.4c2.2-1.4,4.9-2,8.1-2c3.1,0,5.8,0.7,8,2c2.2,1.4,3.9,3.1,5.2,5.4
			c1.2,2.2,1.8,4.6,1.8,7.2c0,0.5,0,0.9-0.1,1.3c0,0.4-0.1,0.8-0.1,1.1h-22.2c0.1,1.5,0.5,2.8,1.2,3.8c0.7,1.1,1.6,1.9,2.7,2.4
			c1.1,0.6,2.3,0.9,3.5,0.9c1.5,0,2.9-0.4,4.2-1.1c0.7-0.4,1.3-0.8,1.8-1.4c0.7-0.9,1.9-1.2,3-0.9l0.1,0c2.2,0.6,2.9,3.5,1.2,5
			c0,0,0,0,0,0c-1.3,1.1-2.8,2-4.6,2.7C237.5,95.6,235.5,95.9,233.4,95.9z M225.9,78.8h15c-0.1-1.4-0.6-2.7-1.2-3.7
			c-0.7-1.1-1.6-1.9-2.7-2.5c-1.1-0.6-2.3-0.9-3.7-0.9c-1.3,0-2.5,0.3-3.6,0.9c-1.1,0.6-2,1.4-2.6,2.5
			C226.4,76.2,226,77.4,225.9,78.8z"/>
		<path class="st1" d="M250.9,87c0-1.8,0.5-3.5,1.6-4.8c1-1.4,2.5-2.4,4.3-3.2c1.8-0.8,4-1.2,6.4-1.2c1.2,0,2.4,0.1,3.7,0.3
			c1.2,0.2,2.3,0.5,3.2,0.9v-1.6c0-1.8-0.5-3.1-1.6-4.1c-1.1-1-2.7-1.5-4.8-1.5c-1.6,0-3.1,0.3-4.6,0.8c-0.7,0.3-1.4,0.6-2.1,1
			c-1.3,0.7-3,0.2-3.6-1.2v0c-0.6-1.3-0.1-2.8,1.1-3.5c1.2-0.6,2.4-1.1,3.6-1.5c2-0.6,4.1-0.9,6.3-0.9c4.1,0,7.3,1,9.6,3
			c2.3,2,3.4,4.9,3.4,8.7v9c0,0.8,0.1,1.3,0.4,1.6c0.3,0.3,0.7,0.5,1.3,0.6v6c-0.7,0.1-1.3,0.2-1.8,0.3c-0.5,0.1-1,0.1-1.3,0.1
			c-1.5,0-2.6-0.3-3.3-1c-0.8-0.6-1.2-1.4-1.3-2.4l-0.2-1.5c-1.3,1.6-2.9,2.9-4.7,3.7c-1.9,0.9-3.8,1.3-5.7,1.3
			c-1.9,0-3.6-0.4-5.1-1.2c-1.5-0.8-2.7-1.9-3.6-3.2C251.4,90.1,250.9,88.6,250.9,87z M268.8,88.3c0.4-0.4,0.7-0.8,1-1.2
			c0.3-0.5,0.4-0.9,0.4-1.2v-2.8c-0.9-0.4-1.8-0.6-2.9-0.8c-1-0.2-2-0.3-2.9-0.3c-1.9,0-3.5,0.4-4.7,1.2c-1.2,0.8-1.8,1.9-1.8,3.2
			c0,0.7,0.2,1.4,0.6,2.1c0.4,0.7,1,1.2,1.7,1.6c0.7,0.4,1.7,0.6,2.8,0.6s2.2-0.2,3.2-0.6C267.3,89.5,268.2,89,268.8,88.3z"/>
		<path class="st1" d="M301.4,93.9c-0.7,0.3-1.4,0.6-2.3,0.9c-0.9,0.3-1.8,0.6-2.8,0.8c-1,0.2-2,0.3-3,0.3c-1.4,0-2.7-0.2-3.8-0.7
			c-1.1-0.5-2-1.2-2.7-2.3c-0.7-1-1-2.4-1-4V72.5h-0.9c-1.5,0-2.8-1.3-2.8-2.8l0,0c0-1.5,1.3-2.8,2.8-2.8h0.9v-5.6
			c0-2,1.7-3.7,3.7-3.7h0c2,0,3.7,1.7,3.7,3.7v5.6h3.2c1.5,0,2.8,1.3,2.8,2.8l0,0c0,1.5-1.3,2.8-2.8,2.8h-3.2v13.9
			c0,1,0.3,1.7,0.8,2.1c0.5,0.5,1.2,0.7,2,0.7c0.7,0,1.5-0.1,2.2-0.4c0.7-0.3,1.3-0.5,1.8-0.7L301.4,93.9z"/>
		<path class="st1" d="M328.2,95.3L328.2,95.3c-2,0-3.7-1.6-3.7-3.7V79.5c0-2.2-0.4-3.8-1.3-4.9c-0.9-1.1-2-1.6-3.5-1.6
			c-0.9,0-1.8,0.3-2.8,0.8c-1,0.5-1.9,1.2-2.7,2.1c-0.8,0.9-1.4,1.9-1.8,3v13c0,2-1.6,3.6-3.6,3.6l0,0c-2,0-3.6-1.6-3.6-3.6V58.9
			c0-2,1.6-3.6,3.6-3.6l0,0c2,0,3.6,1.6,3.6,3.6v13.2c1.1-1.8,2.6-3.2,4.4-4.2c1.8-1,3.8-1.5,6-1.5c1.9,0,3.4,0.3,4.6,0.9
			c1.2,0.6,2.1,1.5,2.7,2.5c0.6,1.1,1.1,2.3,1.3,3.6c0.3,1.3,0.4,2.7,0.4,4v14.1C331.9,93.7,330.3,95.3,328.2,95.3z"/>
		<path class="st1" d="M351.7,95.9c-2.3,0-4.4-0.4-6.3-1.2c-1.9-0.8-3.5-1.8-4.8-3.2c-1.3-1.4-2.3-2.9-3-4.6c-0.7-1.7-1-3.6-1-5.6
			c0-2.7,0.6-5.1,1.8-7.4c1.2-2.3,3-4.1,5.2-5.4c2.2-1.4,4.9-2,8.1-2c3.1,0,5.8,0.7,8,2c2.2,1.4,3.9,3.1,5.2,5.4
			c1.2,2.2,1.8,4.6,1.8,7.2c0,0.5,0,0.9-0.1,1.3c0,0.4-0.1,0.8-0.1,1.1h-22.2c0.1,1.5,0.5,2.8,1.2,3.8c0.7,1.1,1.6,1.9,2.7,2.4
			c1.1,0.6,2.3,0.9,3.5,0.9c1.5,0,2.9-0.4,4.2-1.1c0.7-0.4,1.3-0.8,1.8-1.4c0.7-0.9,1.9-1.2,3-0.9l0.1,0c2.2,0.6,2.9,3.5,1.2,5
			c0,0,0,0,0,0c-1.3,1.1-2.8,2-4.6,2.7C355.8,95.6,353.8,95.9,351.7,95.9z M344.1,78.8h15c-0.1-1.4-0.6-2.7-1.2-3.7
			c-0.7-1.1-1.6-1.9-2.7-2.5c-1.1-0.6-2.3-0.9-3.7-0.9c-1.3,0-2.5,0.3-3.6,0.9c-1.1,0.6-2,1.4-2.6,2.5
			C344.7,76.2,344.3,77.4,344.1,78.8z"/>
		<path class="st1" d="M388.4,73c-2.3,0-4.3,0.5-6,1.3c-1.8,0.8-3,2-3.8,3.6v13.8c0,2-1.6,3.6-3.6,3.6l0,0c-2,0-3.6-1.6-3.6-3.6
			V70.2c0-1.9,1.5-3.4,3.4-3.4l0,0c1.9,0,3.4,1.5,3.4,3.4v2.5c1-2,2.3-3.5,3.9-4.7c1.6-1.1,3.3-1.8,5-1.9c0.4,0,0.7,0,0.9,0
			c0.2,0,0.4,0,0.6,0.1V73z"/>
		<path class="st1" d="M421.2,56.5L421.2,56.5c1.4,0,2.7,0.9,3.1,2.2l2.4,6.9c0.4,1.2,2.2,1.2,2.6,0l2.4-7c0.5-1.3,1.7-2.2,3.1-2.2
			l0,0c2.3,0,3.8,2.3,3,4.4l-4.4,11.7c-0.4,1-0.4,2.2,0,3.2v0c1.5,3.8,6.9,3.7,8.3-0.1l6.1-16.8c0.5-1.5,2-2.5,3.6-2.5h0
			c2.7,0,4.5,2.7,3.5,5.2l-12.3,30.7c-0.7,1.8-2.5,3.1-4.5,3.1l0,0c-2,0-3.7-1.2-4.5-3L429.2,82c-0.5-1.1-2.1-1.1-2.5,0l-4.3,10.3
			c-0.8,1.8-2.5,3-4.5,3h0c-2,0-3.8-1.2-4.5-3.1l-12.3-30.8c-1-2.5,0.8-5.1,3.5-5.1l0,0c1.6,0,3,1,3.5,2.5l6.1,16.8
			c1.4,3.8,6.8,3.9,8.3,0.1v0c0.4-1,0.4-2.1,0-3.2l-4.4-11.7C417.4,58.8,418.9,56.5,421.2,56.5z"/>
		<path class="st1" d="M460.2,58.9L460.2,58.9c0-2,1.6-3.6,3.6-3.6h0c2,0,3.6,1.6,3.6,3.6v0c0,2-1.6,3.6-3.6,3.6h-0.1
			C461.8,62.5,460.2,60.9,460.2,58.9z M460.2,91.7V70.2c0-2,1.6-3.6,3.6-3.6h0c2,0,3.6,1.6,3.6,3.6v21.5c0,2-1.6,3.6-3.6,3.6h0
			C461.9,95.3,460.2,93.7,460.2,91.7z"/>
		<path class="st1" d="M484.8,95.9c-2.5,0-4.8-0.4-7-1.2c-1.4-0.5-2.6-1.1-3.8-1.9c-1.2-0.8-1.5-2.4-0.8-3.7v0c0.8-1.4,2.6-1.8,4-1
			c0.9,0.5,1.7,1,2.6,1.3c1.6,0.7,3.3,1,4.8,1c1.4,0,2.6-0.2,3.4-0.7c0.9-0.5,1.3-1.2,1.3-2.2c0-0.7-0.2-1.3-0.7-1.7
			c-0.5-0.4-1.2-0.7-2.1-1c-0.9-0.3-2-0.6-3.3-0.9c-2.1-0.6-3.9-1.3-5.3-2c-1.4-0.7-2.5-1.5-3.2-2.5c-0.7-1-1.1-2.3-1.1-3.8
			c0-1.9,0.5-3.5,1.5-4.8c1-1.4,2.3-2.4,4.1-3.2c1.7-0.8,3.8-1.1,6.1-1.1c2,0,4,0.3,5.8,1c1,0.3,1.9,0.8,2.7,1.3
			c1.3,0.8,1.7,2.6,0.9,4l0,0c-0.8,1.3-2.6,1.7-3.9,0.9c-0.6-0.4-1.2-0.7-1.8-0.9c-1.3-0.5-2.7-0.8-4-0.8c-0.8,0-1.5,0.1-2.2,0.3
			c-0.7,0.2-1.2,0.5-1.6,0.9c-0.4,0.4-0.6,1-0.6,1.8c0,0.6,0.2,1.2,0.6,1.6c0.4,0.4,1,0.7,1.8,1c0.8,0.3,1.7,0.6,2.9,1
			c2.3,0.6,4.2,1.3,5.8,2c1.6,0.7,2.8,1.5,3.6,2.5s1.2,2.4,1.2,4.1c0,2.8-1,5-3.1,6.6C491.1,95.1,488.3,95.9,484.8,95.9z"/>
		<path class="st1" d="M514.7,95.9c-2.3,0-4.4-0.4-6.3-1.2c-1.9-0.8-3.5-1.8-4.8-3.2c-1.3-1.4-2.3-2.9-3-4.6c-0.7-1.7-1-3.6-1-5.6
			c0-2.7,0.6-5.1,1.8-7.4c1.2-2.3,3-4.1,5.2-5.4c2.2-1.4,4.9-2,8.1-2c3.1,0,5.8,0.7,8,2c2.2,1.4,4,3.1,5.2,5.4
			c1.2,2.2,1.8,4.6,1.8,7.2c0,0.5,0,0.9-0.1,1.3c0,0.4-0.1,0.8-0.1,1.1h-22.2c0.1,1.5,0.5,2.8,1.2,3.8c0.7,1.1,1.6,1.9,2.7,2.4
			c1.1,0.6,2.3,0.9,3.5,0.9c1.5,0,2.9-0.4,4.2-1.1c0.7-0.4,1.3-0.8,1.7-1.4c0.8-0.9,1.9-1.2,3-0.9l0.1,0c2.2,0.6,2.9,3.5,1.2,5
			c0,0,0,0,0,0c-1.3,1.1-2.8,2-4.6,2.7C518.8,95.6,516.8,95.9,514.7,95.9z M507.1,78.8h15c-0.1-1.4-0.6-2.7-1.2-3.7
			c-0.7-1.1-1.6-1.9-2.7-2.5c-1.1-0.6-2.3-0.9-3.7-0.9c-1.3,0-2.5,0.3-3.6,0.9c-1.1,0.6-2,1.4-2.6,2.5
			C507.7,76.2,507.3,77.4,507.1,78.8z"/>
		<path class="st0" d="M85.4,103.7H69.1c-2,0-3.7,1.7-3.7,3.7c0,2,1.7,3.7,3.7,3.7h16.3c2,0,3.7-1.7,3.7-3.7
			C89.1,105.3,87.4,103.7,85.4,103.7z"/>
		<path class="st0" d="M123.3,57.4c-1.1-2.6-3.2-4.7-5.8-5.8c-1.2-0.5-2.5,0.1-3,1.2c-0.5,1.2,0.1,2.5,1.2,3
			c3.2,1.3,4.7,4.9,3.4,8.1c-1.3,3.2-4.9,4.7-8.1,3.4c-1.2-0.5-2.5,0.1-3,1.2c-0.5,1.2,0.1,2.5,1.2,3c1.3,0.5,2.7,0.8,4.1,0.8
			c1.4,0,2.8-0.3,4.1-0.8c2.6-1.1,4.7-3.2,5.8-5.8C124.4,63,124.4,60.1,123.3,57.4z"/>
		<path class="st0" d="M31.2,57.4c1.1-2.6,3.2-4.7,5.8-5.8c1.2-0.5,2.5,0.1,3,1.2c0.5,1.2-0.1,2.5-1.2,3c-3.2,1.3-4.7,4.9-3.4,8.1
			c1.3,3.2,4.9,4.7,8.1,3.4c1.2-0.5,2.5,0.1,3,1.2c0.5,1.2-0.1,2.5-1.2,3c-1.3,0.5-2.7,0.8-4.1,0.8c-1.4,0-2.8-0.3-4.1-0.8
			c-2.6-1.1-4.7-3.2-5.8-5.8C30.1,63,30.1,60.1,31.2,57.4z"/>
		<path class="st0" d="M79.5,116.4H75c-2,0-3.7,1.7-3.7,3.7l0,0c0,2,1.7,3.7,3.7,3.7h4.5c2,0,3.7-1.7,3.7-3.7l0,0
			C83.2,118.1,81.5,116.4,79.5,116.4z"/>
		<path class="st0" d="M102.3,48.4c1.6,0,2.9-1.5,2.6-3.1c-2.4-13.1-13.9-23-27.7-23c-13.8,0-25.3,10-27.7,23
			c-0.3,1.6,0.9,3.1,2.6,3.1h0c1.3,0,2.3-0.9,2.6-2.2c2-10.7,11.3-18.8,22.5-18.8c11.2,0,20.6,8.1,22.5,18.8
			C100,47.5,101.1,48.4,102.3,48.4L102.3,48.4z"/>
		<path id="W_00000026858413238819818100000015940524008328391824_" class="st0" d="M70.4,56.2L70.4,56.2c1.4,0,2.6,0.9,3.1,2.2
			l2.4,6.9c0.4,1.2,2.2,1.2,2.6,0l2.4-7c0.5-1.3,1.7-2.2,3.1-2.2h0c2.3,0,3.8,2.3,3,4.4l-4.4,11.7c-0.4,1-0.4,2.2,0,3.2l0,0
			c1.5,3.8,6.9,3.7,8.3-0.1L97,58.6c0.5-1.5,2-2.5,3.6-2.5h0c2.7,0,4.5,2.7,3.5,5.2L91.8,92c-0.7,1.8-2.5,3.1-4.5,3.1h0
			c-2,0-3.7-1.2-4.5-3l-4.3-10.3c-0.5-1.1-2.1-1.1-2.5,0l-4.3,10.3c-0.8,1.8-2.5,3-4.5,3h0c-2,0-3.8-1.2-4.5-3.1L50.4,61.2
			c-1-2.5,0.8-5.1,3.5-5.1h0c1.6,0,3,1,3.5,2.5l6.1,16.8c1.4,3.8,6.8,3.9,8.3,0.1l0,0c0.4-1,0.4-2.1,0-3.2l-4.4-11.7
			C66.6,58.5,68.2,56.2,70.4,56.2z"/>
	</g>
</g>
</svg>
